<svg data-name="brick icn" xmlns="http://www.w3.org/2000/svg" width="20" height="15.538" viewBox="0 0 20 15.538">
    <defs>
        <clipPath id="8s6ooyqc3a">
            <path data-name="사각형 427" style="fill:none" d="M0 0h20v15.538H0z"/>
        </clipPath>
    </defs>
    <g data-name="그룹 1830" style="clip-path:url(#8s6ooyqc3a)">
        <path data-name="패스 1351" d="M47.529 28.645 41 32.222V28.16l6.875-3.437v3.364a.625.625 0 0 1-.346.559" transform="translate(-28.188 -16.996)" style="fill:#0a949b"/>
        <path data-name="패스 1352" d="M40.313 31.848a.313.313 0 0 1-.313-.313v-4.062a.313.313 0 0 1 .173-.28l6.875-3.437a.313.313 0 0 1 .452.28V27.4a.932.932 0 0 1-.513.836l-6.525 3.575a.312.312 0 0 1-.15.038m.313-4.182v3.342l6.067-3.324.01-.006a.311.311 0 0 0 .173-.279v-2.859z" transform="translate(-27.5 -16.309)" style="fill:#0a949b"/>
        <path data-name="패스 1353" d="m1.346 15.645 12.154 7.64v-4.063L1 11.722v3.364a.625.625 0 0 0 .346.559" transform="translate(-.688 -8.059)" style="fill:#14b9cb"/>
        <path data-name="패스 1354" d="M12.813 22.909a.311.311 0 0 1-.166-.048L.5 15.229A.932.932 0 0 1 0 14.4v-3.366a.313.313 0 0 1 .473-.268l12.5 7.5a.314.314 0 0 1 .152.268V22.6a.312.312 0 0 1-.162.273.309.309 0 0 1-.151.039M.625 11.586V14.4a.311.311 0 0 0 .173.279l.027.015L12.5 22.031v-3.32z" transform="translate(0 -7.371)" style="fill:#14b9cb"/>
        <path data-name="패스 1355" d="M20.375 8.414 13.807 11.7a.625.625 0 0 1-.6-.023L1 4.352l6.568-3.285a.625.625 0 0 1 .6.023z" transform="translate(-.688 -.689)" style="fill:#7adde2"/>
        <path data-name="패스 1356" d="M12.839 11.389a.932.932 0 0 1-.481-.134L.152 3.931a.313.313 0 0 1 .021-.548L6.741.1a.934.934 0 0 1 .9.034l12.207 7.324a.312.312 0 0 1-.021.548l-6.568 3.284a.939.939 0 0 1-.419.1M.961 3.688l11.718 7.031a.312.312 0 0 0 .3.012l6.06-3.03L7.321.67a.31.31 0 0 0-.3-.012z" style="fill:#7adde2"/>
        <path data-name="패스 1357" d="M15.125 10.535a.313.313 0 1 1-.312-.312.313.313 0 0 1 .313.313" transform="translate(-9.969 -7.028)" style="fill:#fff"/>
        <path data-name="패스 1358" d="M14.469 10.66a.469.469 0 1 1 .469-.469.469.469 0 0 1-.469.469m0-.625a.156.156 0 1 0 .156.156.157.157 0 0 0-.156-.156" transform="translate(-9.625 -6.684)" style="fill:#fff"/>
        <path data-name="패스 1359" d="M22.125 7.535a.313.313 0 1 1-.312-.312.313.313 0 0 1 .313.313" transform="translate(-14.781 -4.965)" style="fill:#fff"/>
        <path data-name="패스 1360" d="M21.469 7.66a.469.469 0 1 1 .469-.469.469.469 0 0 1-.469.469m0-.625a.156.156 0 1 0 .156.156.157.157 0 0 0-.156-.156" transform="translate(-14.438 -4.621)" style="fill:#fff"/>
        <path data-name="패스 1361" d="M22.125 14.535a.313.313 0 1 1-.312-.312.313.313 0 0 1 .313.313" transform="translate(-14.781 -9.778)" style="fill:#fff"/>
        <path data-name="패스 1362" d="M21.469 14.66a.469.469 0 1 1 .469-.469.469.469 0 0 1-.469.469m0-.625a.156.156 0 1 0 .156.156.157.157 0 0 0-.156-.156" transform="translate(-14.438 -9.434)" style="fill:#fff"/>
        <path data-name="패스 1363" d="M29.125 11.535a.313.313 0 1 1-.312-.312.313.313 0 0 1 .313.313" transform="translate(-19.594 -7.715)" style="fill:#fff"/>
        <path data-name="패스 1364" d="M28.469 11.66a.469.469 0 1 1 .469-.469.469.469 0 0 1-.469.469m0-.625a.156.156 0 1 0 .156.156.157.157 0 0 0-.156-.156" transform="translate(-19.25 -7.371)" style="fill:#fff"/>
        <path data-name="패스 1365" d="M28.125 18.535a.313.313 0 1 1-.312-.312.313.313 0 0 1 .313.313" transform="translate(-18.906 -12.528)" style="fill:#fff"/>
        <path data-name="패스 1366" d="M27.469 18.66a.469.469 0 1 1 .469-.469.469.469 0 0 1-.469.469m0-.625a.156.156 0 1 0 .156.156.157.157 0 0 0-.156-.156" transform="translate(-18.563 -12.184)" style="fill:#fff"/>
        <path data-name="패스 1367" d="M35.125 15.535a.313.313 0 1 1-.312-.312.313.313 0 0 1 .313.313" transform="translate(-23.719 -10.465)" style="fill:#fff"/>
        <path data-name="패스 1368" d="M34.469 15.66a.469.469 0 1 1 .469-.469.469.469 0 0 1-.469.469m0-.625a.156.156 0 1 0 .156.156.157.157 0 0 0-.156-.156" transform="translate(-23.375 -10.121)" style="fill:#fff"/>
        <path data-name="패스 1369" d="M35.125 22.535a.313.313 0 1 1-.312-.312.313.313 0 0 1 .313.313" transform="translate(-23.719 -15.278)" style="fill:#fff"/>
        <path data-name="패스 1370" d="M34.469 22.66a.469.469 0 1 1 .469-.469.469.469 0 0 1-.469.469m0-.625a.156.156 0 1 0 .156.156.157.157 0 0 0-.156-.156" transform="translate(-23.375 -14.934)" style="fill:#fff"/>
        <path data-name="패스 1371" d="M42.125 19.535a.313.313 0 1 1-.312-.312.313.313 0 0 1 .313.313" transform="translate(-28.531 -13.215)" style="fill:#fff"/>
        <path data-name="패스 1372" d="M41.469 19.66a.469.469 0 1 1 .469-.469.469.469 0 0 1-.469.469m0-.625a.156.156 0 1 0 .156.156.157.157 0 0 0-.156-.156" transform="translate(-28.188 -12.871)" style="fill:#fff"/>
        <path data-name="패스 1373" d="M42.125 26.535a.313.313 0 1 1-.312-.312.313.313 0 0 1 .313.313" transform="translate(-28.531 -18.028)" style="fill:#fff"/>
        <path data-name="패스 1374" d="M41.469 26.66a.469.469 0 1 1 .469-.469.469.469 0 0 1-.469.469m0-.625a.156.156 0 1 0 .156.156.157.157 0 0 0-.156-.156" transform="translate(-28.188 -17.684)" style="fill:#fff"/>
        <path data-name="패스 1375" d="M49.125 23.535a.313.313 0 1 1-.312-.312.313.313 0 0 1 .313.313" transform="translate(-33.344 -15.965)" style="fill:#fff"/>
        <path data-name="패스 1376" d="M48.469 23.66a.469.469 0 1 1 .469-.469.469.469 0 0 1-.469.469m0-.625a.156.156 0 1 0 .156.156.157.157 0 0 0-.156-.156" transform="translate(-33 -15.621)" style="fill:#fff"/>
    </g>
</svg>
