<svg data-name="brick icn" xmlns="http://www.w3.org/2000/svg" width="18" height="13.984" viewBox="0 0 18 13.984">
    <defs>
        <clipPath id="e07lh23vua">
            <path data-name="사각형 427" style="fill:none" d="M0 0h18v13.984H0z"/>
        </clipPath>
    </defs>
    <g data-name="그룹 1830" style="clip-path:url(#e07lh23vua)">
        <path data-name="패스 1351" d="M46.876 28.253 41 31.472v-3.656l6.188-3.094v3.027a.562.562 0 0 1-.311.5" transform="translate(-29.469 -17.769)" style="fill:#0a949b"/>
        <path data-name="패스 1352" d="M40.281 31.035a.281.281 0 0 1-.281-.281V27.1a.282.282 0 0 1 .156-.252l6.188-3.094a.281.281 0 0 1 .406.246v3.027a.839.839 0 0 1-.461.752L40.416 31a.28.28 0 0 1-.135.035m.281-3.764v3.008l5.46-2.991.009-.005a.279.279 0 0 0 .156-.251v-2.573z" transform="translate(-28.75 -17.051)" style="fill:#0a949b"/>
        <path data-name="패스 1353" d="m1.311 15.253 10.939 6.875v-3.656L1 11.722v3.027a.562.562 0 0 0 .311.5" transform="translate(-.719 -8.425)" style="fill:#14b9cb"/>
        <path data-name="패스 1354" d="M11.531 21.691a.28.28 0 0 1-.15-.043L.453 14.778A.839.839 0 0 1 0 14.03V11a.281.281 0 0 1 .426-.241l11.25 6.75a.282.282 0 0 1 .136.241v3.656a.281.281 0 0 1-.145.246.278.278 0 0 1-.136.035M.563 11.5v2.53a.279.279 0 0 0 .156.251l.024.014L11.25 20.9v-2.988z" transform="translate(0 -7.706)" style="fill:#14b9cb"/>
        <path data-name="패스 1355" d="m18.438 7.673-5.912 2.956a.562.562 0 0 1-.54-.021L1 4.017l5.912-2.956a.562.562 0 0 1 .54.021z" transform="translate(-.719 -.72)" style="fill:#7adde2"/>
        <path data-name="패스 1356" d="M11.556 10.25a.838.838 0 0 1-.433-.121L.137 3.538a.281.281 0 0 1 .019-.493L6.067.089a.84.84 0 0 1 .811.031l10.985 6.592a.281.281 0 0 1-.019.493l-5.912 2.956a.845.845 0 0 1-.377.089M.865 3.319l10.547 6.328a.28.28 0 0 0 .27.01l5.454-2.727L6.589.6a.279.279 0 0 0-.27-.01z" style="fill:#7adde2"/>
        <path data-name="패스 1357" d="M15.062 10.5a.281.281 0 1 1-.281-.281.281.281 0 0 1 .281.281" transform="translate(-10.422 -7.347)" style="fill:#fff"/>
        <path data-name="패스 1358" d="M14.422 10.566a.422.422 0 1 1 .422-.422.422.422 0 0 1-.422.422m0-.562a.141.141 0 1 0 .141.141.141.141 0 0 0-.141-.145" transform="translate(-10.062 -6.988)" style="fill:#fff"/>
        <path data-name="패스 1359" d="M22.063 7.5a.281.281 0 1 1-.281-.281.281.281 0 0 1 .281.281" transform="translate(-15.453 -5.191)" style="fill:#fff"/>
        <path data-name="패스 1360" d="M21.422 7.566a.422.422 0 1 1 .422-.422.422.422 0 0 1-.422.422m0-.562a.141.141 0 1 0 .141.141.141.141 0 0 0-.141-.145" transform="translate(-15.094 -4.832)" style="fill:#fff"/>
        <path data-name="패스 1361" d="M22.063 14.5a.281.281 0 1 1-.281-.281.281.281 0 0 1 .281.281" transform="translate(-15.453 -10.222)" style="fill:#fff"/>
        <path data-name="패스 1362" d="M21.422 14.566a.422.422 0 1 1 .422-.422.422.422 0 0 1-.422.422m0-.562a.141.141 0 1 0 .141.141.141.141 0 0 0-.141-.145" transform="translate(-15.094 -9.863)" style="fill:#fff"/>
        <path data-name="패스 1363" d="M29.063 11.5a.281.281 0 1 1-.281-.281.281.281 0 0 1 .281.281" transform="translate(-20.484 -8.066)" style="fill:#fff"/>
        <path data-name="패스 1364" d="M28.422 11.566a.422.422 0 1 1 .422-.422.422.422 0 0 1-.422.422m0-.562a.141.141 0 1 0 .141.141.141.141 0 0 0-.141-.145" transform="translate(-20.125 -7.707)" style="fill:#fff"/>
        <path data-name="패스 1365" d="M28.063 18.5a.281.281 0 1 1-.281-.281.281.281 0 0 1 .281.281" transform="translate(-19.766 -13.097)" style="fill:#fff"/>
        <path data-name="패스 1366" d="M27.422 18.566a.422.422 0 1 1 .422-.422.422.422 0 0 1-.422.422m0-.562a.141.141 0 1 0 .141.141.141.141 0 0 0-.141-.145" transform="translate(-19.406 -12.738)" style="fill:#fff"/>
        <path data-name="패스 1367" d="M35.063 15.5a.281.281 0 1 1-.281-.281.281.281 0 0 1 .281.281" transform="translate(-24.797 -10.941)" style="fill:#fff"/>
        <path data-name="패스 1368" d="M34.422 15.566a.422.422 0 1 1 .422-.422.422.422 0 0 1-.422.422m0-.562a.141.141 0 1 0 .141.141.141.141 0 0 0-.141-.145" transform="translate(-24.438 -10.582)" style="fill:#fff"/>
        <path data-name="패스 1369" d="M35.063 22.5a.281.281 0 1 1-.281-.281.281.281 0 0 1 .281.281" transform="translate(-24.797 -15.972)" style="fill:#fff"/>
        <path data-name="패스 1370" d="M34.422 22.566a.422.422 0 1 1 .422-.422.422.422 0 0 1-.422.422m0-.562a.141.141 0 1 0 .141.141.141.141 0 0 0-.141-.145" transform="translate(-24.438 -15.613)" style="fill:#fff"/>
        <path data-name="패스 1371" d="M42.063 19.5a.281.281 0 1 1-.281-.281.281.281 0 0 1 .281.281" transform="translate(-29.828 -13.816)" style="fill:#fff"/>
        <path data-name="패스 1372" d="M41.422 19.566a.422.422 0 1 1 .422-.422.422.422 0 0 1-.422.422m0-.562a.141.141 0 1 0 .141.141.141.141 0 0 0-.141-.145" transform="translate(-29.469 -13.457)" style="fill:#fff"/>
        <path data-name="패스 1373" d="M42.063 26.5a.281.281 0 1 1-.281-.281.281.281 0 0 1 .281.281" transform="translate(-29.828 -18.847)" style="fill:#fff"/>
        <path data-name="패스 1374" d="M41.422 26.566a.422.422 0 1 1 .422-.422.422.422 0 0 1-.422.422m0-.562a.141.141 0 1 0 .141.141.141.141 0 0 0-.141-.145" transform="translate(-29.469 -18.488)" style="fill:#fff"/>
        <path data-name="패스 1375" d="M49.062 23.5a.281.281 0 1 1-.281-.281.281.281 0 0 1 .281.281" transform="translate(-34.859 -16.691)" style="fill:#fff"/>
        <path data-name="패스 1376" d="M48.422 23.566a.422.422 0 1 1 .422-.422.422.422 0 0 1-.422.422m0-.562a.141.141 0 1 0 .141.141.141.141 0 0 0-.141-.145" transform="translate(-34.5 -16.332)" style="fill:#fff"/>
    </g>
</svg>
