<svg xmlns="http://www.w3.org/2000/svg" width="227.533" height="30.576" viewBox="0 0 227.533 30.576">
    <path data-name="선 10" d="m1.3 7.519-2.6-3.038 7-6 2.6 3.038z" transform="translate(197.045 2.248)" style="fill:#ff2ebf"/>
    <path data-name="선 14" d="m7.106 5.789-8-4L.894-1.789l8 4z" transform="translate(36.473 20.748)" style="fill:#ff2ebf"/>
    <path data-name="선 11" d="m4.481 8.3-6-7 3.038-2.6 6 7z" transform="translate(1.519 20.748)" style="fill:#ffc400"/>
    <path data-name="선 12" d="m1.06 6.7-2.12-3.4 8-5 2.12 3.4z" transform="translate(218.473 19.748)" style="fill:#00a7ff"/>
    <path data-name="선 15" d="m.971 6.748-1.943-3.5 9-5 1.943 3.5z" transform="translate(17.473 1.748)" style="fill:#5eed6f"/>
    <path data-name="선 13" d="m8.188 5.828-9-4L.812-1.828l9 4z" transform="translate(181.473 24.748)" style="fill:#f9c41d"/>
</svg>
