<svg data-name="gift icn" xmlns="http://www.w3.org/2000/svg" width="24" height="24" viewBox="0 0 24 24">
    <path data-name="사각형 386" style="fill:transparent" d="M0 0h24v24H0z"/>
    <path data-name="패스 1296" d="M4.207 0a4.207 4.207 0 0 1 4.207 4.207c0 2.324-8.414 2.324-8.414 0A4.207 4.207 0 0 1 4.207 0z" transform="translate(12 4)" style="fill:#f8ad1b"/>
    <path data-name="패스 1297" d="M4.207 0a4.207 4.207 0 0 1 4.207 4.207c0 2.324-8.414 2.324-8.414 0A4.207 4.207 0 0 1 4.207 0z" transform="translate(3.586 4)" style="fill:#f8ad1b"/>
    <path data-name="사각형 387" transform="translate(2 8)" style="fill:#ef4949" d="M0 0h20v3H0z"/>
    <path data-name="사각형 388" transform="translate(4 11)" style="fill:#ef4949" d="M0 0h16v9H0z"/>
    <path data-name="사각형 389" transform="translate(10 8)" style="fill:#f8ad1b" d="M0 0h4v12H0z"/>
    <path data-name="사각형 390" transform="translate(10 4)" style="fill:#ff9300" d="M0 0h4v4H0z"/>
</svg>
