<svg data-name="info icn" xmlns="http://www.w3.org/2000/svg" width="24" height="24" viewBox="0 0 24 24">
    <defs>
        <clipPath id="bste0h9qsa">
            <path data-name="사각형 69" transform="translate(-7 -3)" style="stroke:#fff;fill:none" d="M0 0h24v24H0z"/>
        </clipPath>
    </defs>
    <g data-name="패스 1468" style="opacity:.3;fill:none">
        <path d="M12 0A12 12 0 1 1 0 12 12 12 0 0 1 12 0z" style="stroke:none"/>
        <path d="M12 2C6.486 2 2 6.486 2 12s4.486 10 10 10 10-4.486 10-10S17.514 2 12 2m0-2c6.627 0 12 5.373 12 12s-5.373 12-12 12S0 18.627 0 12 5.373 0 12 0z" style="fill:#fff;stroke:none"/>
    </g>
    <g data-name="그룹 51" style="opacity:.5">
        <g data-name="그룹 50" transform="translate(7 3)" style="clip-path:url(#bste0h9qsa)">
            <path data-name="선 3" transform="translate(5 3)" style="stroke-miterlimit:10;stroke-width:3px;stroke:#fff;fill:none" d="M0 0v3"/>
            <path data-name="선 9" transform="translate(5 8)" style="stroke-miterlimit:10;stroke-width:3px;stroke:#fff;fill:none" d="M0 0v7"/>
        </g>
    </g>
</svg>
