<svg xmlns="http://www.w3.org/2000/svg" width="120" height="120" viewBox="0 0 120 120">
    <defs>
        <clipPath id="x3zugjvs1a">
            <path data-name="사각형 519" style="fill:#c0a2ff" d="M0 0h102v99H0z"/>
        </clipPath>
    </defs>
    <path data-name="사각형 516" style="fill:transparent" d="M0 0h120v120H0z"/>
    <g data-name="그룹 1952">
        <path data-name="패스 1449" d="m44.01 17.095-11.2-1.626-4-8.109-1.01-2.04-1 2.04-4 8.109-11.2 1.626 8.1 7.9-1.91 11.15L27.8 30.88l10.017 5.265-1.91-11.151z" transform="translate(32.196 22.64)" style="fill:#f3effa"/>
        <g data-name="그룹 1951">
            <g data-name="그룹 1950" style="clip-path:url(#x3zugjvs1a)" transform="translate(9 12)">
                <path data-name="패스 1450" d="M84 12V0H18v12H0v21.3a23.694 23.694 0 0 0 20.907 23.52c5 9.825 15.777 16.941 27.093 18.03V87H30v6h-9v6h60v-6h-9v-6H54V74.85c11.316-1.089 22.1-8.205 27.093-18.03A23.694 23.694 0 0 0 102 33.3V12zM6 33.3V18h12v27a24.9 24.9 0 0 0 .591 5.241A17.734 17.734 0 0 1 6 33.3M78 12v33a19 19 0 0 1-1.041 6 23.936 23.936 0 0 1-3.048 6 27.871 27.871 0 0 1-45.822 0 23.936 23.936 0 0 1-3.048-6A19 19 0 0 1 24 45V6h54zm18 21.3a17.734 17.734 0 0 1-12.591 16.941A24.9 24.9 0 0 0 84 45V18h12z" style="fill:#c0a2ff"/>
            </g>
        </g>
    </g>
</svg>
