<svg xmlns="http://www.w3.org/2000/svg" width="23" height="25" viewBox="0 0 23 25">
    <g data-name="패스 1379" style="fill:#14b9c8">
        <path d="M16.406 22.5H8.594a4.234 4.234 0 0 1-3.653-2.127l-3.863-6.708a4.351 4.351 0 0 1 0-4.33L4.94 2.627A4.234 4.234 0 0 1 8.594.5h7.812c1.498 0 2.897.815 3.653 2.127l3.863 6.708a4.351 4.351 0 0 1 0 4.33l-3.863 6.708a4.234 4.234 0 0 1-3.653 2.127z" style="stroke:none" transform="rotate(-90 12.5 12.5)"/>
        <path d="M8.594 1c-1.32 0-2.553.719-3.22 1.876L1.511 9.585a3.85 3.85 0 0 0 0 3.83l3.863 6.709A3.733 3.733 0 0 0 8.594 22h7.812c1.32 0 2.553-.719 3.22-1.876l3.863-6.709a3.85 3.85 0 0 0 0-3.83l-3.863-6.709A3.733 3.733 0 0 0 16.406 1H8.594m0-1h7.812a4.72 4.72 0 0 1 4.086 2.377l3.864 6.709a4.845 4.845 0 0 1 0 4.828l-3.864 6.709A4.72 4.72 0 0 1 16.406 23H8.594a4.72 4.72 0 0 1-4.086-2.377L.644 13.914a4.845 4.845 0 0 1 0-4.828l3.864-6.709A4.72 4.72 0 0 1 8.594 0z" style="fill:#0ba4b2;stroke:none" transform="rotate(-90 12.5 12.5)"/>
    </g>
</svg>
