<svg data-name="rank icn" xmlns="http://www.w3.org/2000/svg" width="28" height="28" viewBox="0 0 28 28">
    <path data-name="사각형 67" style="fill:transparent" d="M0 0h28v28H0z"/>
    <g data-name="그룹 49">
        <path data-name="제외 2" d="M18 22H6v-2.445h4.8v-3.766a7.168 7.168 0 0 1-5.078-3.573 5.924 5.924 0 0 1-4.053-1.88A6.142 6.142 0 0 1 0 6.111V2.444h4.8V0h14.4v2.444H24v3.667a6.14 6.14 0 0 1-1.669 4.224 5.926 5.926 0 0 1-4.053 1.881 7.168 7.168 0 0 1-5.078 3.573v3.767H18V22zM12 9.852 14.6 11l-.217-3L16.2 5.712l-2.73-.706L12 2.444l-1.471 2.563-2.729.705L9.621 8 9.4 11 12 9.852zm7.2-4.963v4.679a3.671 3.671 0 0 0 2.4-3.457V4.889zm-16.8 0v1.222a3.671 3.671 0 0 0 2.4 3.457V4.889z" transform="translate(2 3)" style="fill:#ffc400"/>
    </g>
</svg>
