<svg xmlns="http://www.w3.org/2000/svg" width="120" height="120" viewBox="0 0 120 120">
    <defs>
        <clipPath id="dex233u61a">
            <path data-name="사각형 526" style="fill:none" d="M0 0h96v96H0z"/>
        </clipPath>
    </defs>
    <g data-name="그룹 1956" transform="translate(12 12)" style="clip-path:url(#dex233u61a)">
        <path data-name="패스 1456" d="M6 48H0a48.007 48.007 0 0 1 91.173-21l-5.394 2.628A42.006 42.006 0 0 0 6 48z" style="fill:#c0a2ff"/>
        <path data-name="패스 1457" d="M44.313 23.688H24.438v-6h13.875V3.813h6z" transform="translate(48.875 7.625)" style="fill:#c0a2ff"/>
        <path data-name="패스 1458" d="M44.782 64A47.851 47.851 0 0 1 19 56.493 48.117 48.117 0 0 1 1.609 37L7 34.375a42.119 42.119 0 0 0 15.221 17.06A42.006 42.006 0 0 0 86.782 16h6a47.686 47.686 0 0 1-14.059 33.941A47.686 47.686 0 0 1 44.782 64z" transform="translate(3.218 32)" style="fill:#c0a2ff"/>
        <path data-name="패스 1459" d="M6.938 41.438h-6V21.563h19.875v6H6.938z" transform="translate(1.875 43.125)" style="fill:#c0a2ff"/>
        <g data-name="그룹 1958">
            <path data-name="패스 1460" d="M17.742 32.858h-4.95V17.772l-4.863 1.361v-3.589l9.36-3.1h.453z" transform="translate(15.859 24.891)" style="fill:#f3effa"/>
            <path data-name="패스 1461" d="M28.2 24.715a9.474 9.474 0 0 1-1.946 6.385 6.848 6.848 0 0 1-5.472 2.248 6.876 6.876 0 0 1-5.508-2.26 9.468 9.468 0 0 1-1.95-6.373v-3.734a9.472 9.472 0 0 1 1.944-6.388 6.86 6.86 0 0 1 5.484-2.245 6.861 6.861 0 0 1 5.493 2.26A9.493 9.493 0 0 1 28.2 21zm-4.938-4.338a7 7 0 0 0-.6-3.292A2.023 2.023 0 0 0 20.752 16a1.973 1.973 0 0 0-1.852 1.008 6.62 6.62 0 0 0-.624 3.062v5.22a7.049 7.049 0 0 0 .6 3.346 2.032 2.032 0 0 0 1.9 1.061 2 2 0 0 0 1.86-1.032 6.715 6.715 0 0 0 .615-3.234z" transform="translate(26.442 24.696)" style="fill:#f3effa"/>
            <path data-name="패스 1462" d="M33.986 24.715a9.474 9.474 0 0 1-1.941 6.385 6.848 6.848 0 0 1-5.472 2.248 6.876 6.876 0 0 1-5.508-2.26 9.468 9.468 0 0 1-1.95-6.373v-3.734a9.472 9.472 0 0 1 1.944-6.388 6.86 6.86 0 0 1 5.484-2.245 6.861 6.861 0 0 1 5.493 2.26A9.493 9.493 0 0 1 33.986 21zm-4.938-4.338a7 7 0 0 0-.6-3.292A2.023 2.023 0 0 0 26.543 16a1.973 1.973 0 0 0-1.851 1.009 6.62 6.62 0 0 0-.624 3.062v5.219a7.049 7.049 0 0 0 .6 3.346 2.032 2.032 0 0 0 1.905 1.064 2 2 0 0 0 1.86-1.032 6.715 6.715 0 0 0 .615-3.234z" transform="translate(37.802 24.696)" style="fill:#f3effa"/>
        </g>
    </g>
    <path data-name="사각형 527" style="fill:transparent" d="M0 0h120v120H0z"/>
</svg>
