<svg data-name="settings icn" xmlns="http://www.w3.org/2000/svg" width="28" height="28" viewBox="0 0 28 28">
    <defs>
        <clipPath id="nq8pniqria">
            <path data-name="사각형 61" style="fill:#beb8d8" d="M0 0h28v28H0z"/>
        </clipPath>
    </defs>
    <g data-name="그룹 47" style="clip-path:url(#nq8pniqria)">
        <path data-name="패스 110" d="M21.452 11.666a9.55 9.55 0 0 0-.056-1.03l1.938-2.364-2.65-4.529-2.834.441a9.8 9.8 0 0 0-2.222-1.346L14.521 0H9.22L8.191 2.641A9.8 9.8 0 0 0 5.9 3.868l-3.046-.473L.2 7.924l1.8 2.2a9.487 9.487 0 0 0-.07 2.573L0 15.061l2.65 4.529 2.834-.441A9.8 9.8 0 0 0 7.707 20.5l1.106 2.838h5.3l1.029-2.641a9.8 9.8 0 0 0 2.292-1.228l3.045.474 2.65-4.529-1.8-2.2a9.573 9.573 0 0 0 .126-1.542m-5.708 0a4.077 4.077 0 1 1-4.077-4.023 4.05 4.05 0 0 1 4.077 4.023" transform="translate(2.333 2.333)" style="fill:#beb8d8"/>
    </g>
</svg>
