<svg data-name="sound icn" xmlns="http://www.w3.org/2000/svg" width="24" height="24" viewBox="0 0 24 24">
    <path data-name="사각형 414" style="fill:transparent" d="M0 0h24v24H0z"/>
    <g data-name="그룹 1935">
        <path data-name="합치기 6" d="M1.143 8.81A1.123 1.123 0 0 1 0 7.709V1.1A1.122 1.122 0 0 1 1.143 0H8a1.123 1.123 0 0 1 1.143 1.1v6.609A1.123 1.123 0 0 1 8 8.81z" transform="translate(2 7.595)" style="stroke:transparent;stroke-miterlimit:10;fill:#908d96"/>
        <path data-name="합치기 7" d="M0 13.833V6.167L8 0v20z" transform="translate(7.714 2)" style="fill:#c1c1c1;stroke:transparent;stroke-miterlimit:10"/>
        <path data-name="패스 1320" d="m19.058 17.162-1.436-1.714a3.179 3.179 0 0 0 0-5.113l1.436-1.714a5.332 5.332 0 0 1 0 8.54z" transform="translate(.803 -.342)" style="fill:#908d96"/>
    </g>
</svg>
